<svg width="48" height="42" viewBox="0 0 48 42" fill="none" xmlns="http://www.w3.org/2000/svg">
<path d="M41.0807 32.6376L26.9758 32.5408C26.9758 32.5408 22.9916 32.3991 20.9924 32.4887C17.3937 32.6499 15.4351 37.8331 15.0451 40.0448C14.733 41.8142 15.0402 40.8988 15.5718 40.6951C20.2978 38.8843 21.3292 39.337 28.4494 39.6422C37.0233 40.0098 39.3053 36.3616 39.967 35.5C40.7153 34.5256 41.0807 32.6376 41.0807 32.6376Z" fill="url(#paint0_linear_449_626)"/>
<path d="M47.2224 18.0432L26.1859 18.0434C26.1859 18.0434 22.3837 17.7829 19.2418 18.0433C8.93932 18.897 7.12938 27.7468 6.63093 31.2476C6.23217 34.0482 6.66795 32.5905 7.49388 32.2385C14.8378 29.1087 16.4847 29.7587 27.7074 29.8124C41.2214 29.8771 44.6226 24.0046 45.6189 22.6104C46.7459 21.0335 47.2224 18.0432 47.2224 18.0432Z" fill="url(#paint1_linear_449_626)"/>
<path d="M0.340783 15.0482L21.3772 14.9652C21.3772 14.9652 26.0321 14.9651 30.1528 14.9651C40.4518 14.0709 40.3953 5.18688 40.88 1.68416C41.2677 -1.11802 40.8377 0.341378 40.0131 0.696625C32.6816 3.85539 31.0321 3.21189 19.8094 3.20235C6.2952 3.19086 2.91715 9.07673 1.92627 10.4748C0.805492 12.0561 -0.677815 14.3717 0.340783 15.0482Z" fill="url(#paint2_linear_449_626)"/>
<defs>
<linearGradient id="paint0_linear_449_626" x1="37.8291" y1="-7.47614e-07" x2="12.4873" y2="41.1345" gradientUnits="userSpaceOnUse">
<stop stop-color="#04CD8F"/>
<stop offset="1" stop-color="#904DF8"/>
</linearGradient>
<linearGradient id="paint1_linear_449_626" x1="37.8291" y1="-7.47614e-07" x2="12.4873" y2="41.1345" gradientUnits="userSpaceOnUse">
<stop stop-color="#04CD8F"/>
<stop offset="1" stop-color="#904DF8"/>
</linearGradient>
<linearGradient id="paint2_linear_449_626" x1="37.8291" y1="-7.47614e-07" x2="12.4873" y2="41.1345" gradientUnits="userSpaceOnUse">
<stop stop-color="#04CD8F"/>
<stop offset="1" stop-color="#904DF8"/>
</linearGradient>
</defs>
</svg>
