<svg width="20" height="20" viewBox="0 0 20 20" fill="none" xmlns="http://www.w3.org/2000/svg">
<path fill-rule="evenodd" clip-rule="evenodd" d="M4.16732 16.666H15.834C16.055 16.666 16.267 16.7538 16.4232 16.9101C16.5795 17.0664 16.6673 17.2783 16.6673 17.4993C16.6673 17.7204 16.5795 17.9323 16.4232 18.0886C16.267 18.2449 16.055 18.3327 15.834 18.3327H4.16732C3.9463 18.3327 3.73434 18.2449 3.57806 18.0886C3.42178 17.9323 3.33398 17.7204 3.33398 17.4993C3.33398 17.2783 3.42178 17.0664 3.57806 16.9101C3.73434 16.7538 3.9463 16.666 4.16732 16.666ZM3.33398 12.4993L11.6673 4.16602L14.1673 6.66602L5.83398 14.9993H3.33398V12.4993ZM12.5007 3.33268L14.1673 1.66602L16.6673 4.16602L14.9998 5.83352L12.5007 3.33268Z" fill="#2D80AE"/>
</svg>
