<svg width="17" height="15" viewBox="0 0 17 15" fill="none" xmlns="http://www.w3.org/2000/svg">
<path d="M14.102 11.2037L9.26011 11.1704C9.26011 11.1704 7.89243 11.1218 7.20615 11.1525C5.97081 11.2079 5.29849 12.9871 5.16458 13.7464C5.05746 14.3537 5.16293 14.0395 5.34538 13.9696C6.96773 13.348 7.32176 13.5034 9.76594 13.6082C12.7092 13.7343 13.4925 12.482 13.7196 12.1863C13.9765 11.8517 14.102 11.2037 14.102 11.2037Z" fill="white"/>
<path d="M16.2103 6.19379L8.98894 6.19384C8.98894 6.19384 7.68376 6.1044 6.60521 6.1938C3.06864 6.48686 2.44733 9.52477 2.27623 10.7265C2.13935 11.6879 2.28894 11.1875 2.57246 11.0667C5.09345 9.99226 5.65879 10.2154 9.51123 10.2338C14.1502 10.256 15.3178 8.24015 15.6598 7.76157C16.0467 7.22026 16.2103 6.19379 16.2103 6.19379Z" fill="white"/>
<path d="M0.116982 5.16567L7.33824 5.13718C7.33824 5.13718 8.93616 5.13714 10.3507 5.13714C13.8861 4.83016 13.8667 1.78052 14.0331 0.578128C14.1661 -0.383789 14.0185 0.117186 13.7355 0.239134C11.2187 1.32346 10.6525 1.10256 6.80005 1.09929C2.16098 1.09534 1.00138 3.11581 0.661238 3.59573C0.276505 4.13857 -0.232677 4.93345 0.116982 5.16567Z" fill="white"/>
</svg>
