<svg width="180" height="42" viewBox="0 0 180 42" fill="none" xmlns="http://www.w3.org/2000/svg">
<path d="M68.584 30.336C67.224 30.336 65.904 30.168 64.624 29.832C63.344 29.496 62.304 29.048 61.504 28.488L63.064 24.984C63.816 25.48 64.688 25.88 65.68 26.184C66.672 26.488 67.648 26.64 68.608 26.64C70.432 26.64 71.344 26.184 71.344 25.272C71.344 24.792 71.08 24.44 70.552 24.216C70.04 23.976 69.208 23.728 68.056 23.472C66.792 23.2 65.736 22.912 64.888 22.608C64.04 22.288 63.312 21.784 62.704 21.096C62.096 20.408 61.792 19.48 61.792 18.312C61.792 17.288 62.072 16.368 62.632 15.552C63.192 14.72 64.024 14.064 65.128 13.584C66.248 13.104 67.616 12.864 69.232 12.864C70.336 12.864 71.424 12.992 72.496 13.248C73.568 13.488 74.512 13.848 75.328 14.328L73.864 17.856C72.264 16.992 70.712 16.56 69.208 16.56C68.264 16.56 67.576 16.704 67.144 16.992C66.712 17.264 66.496 17.624 66.496 18.072C66.496 18.52 66.752 18.856 67.264 19.08C67.776 19.304 68.6 19.536 69.736 19.776C71.016 20.048 72.072 20.344 72.904 20.664C73.752 20.968 74.48 21.464 75.088 22.152C75.712 22.824 76.024 23.744 76.024 24.912C76.024 25.92 75.744 26.832 75.184 27.648C74.624 28.464 73.784 29.12 72.664 29.616C71.544 30.096 70.184 30.336 68.584 30.336ZM84.5311 30.216C83.1391 30.216 81.8831 29.928 80.7631 29.352C79.6431 28.776 78.7631 27.976 78.1231 26.952C77.4991 25.928 77.1871 24.768 77.1871 23.472C77.1871 22.192 77.4991 21.04 78.1231 20.016C78.7631 18.992 79.6351 18.2 80.7391 17.64C81.8591 17.064 83.1231 16.776 84.5311 16.776C85.9391 16.776 87.2031 17.064 88.3231 17.64C89.4431 18.2 90.3151 18.992 90.9391 20.016C91.5631 21.024 91.8751 22.176 91.8751 23.472C91.8751 24.768 91.5631 25.928 90.9391 26.952C90.3151 27.976 89.4431 28.776 88.3231 29.352C87.2031 29.928 85.9391 30.216 84.5311 30.216ZM84.5311 26.592C85.3311 26.592 85.9871 26.32 86.4991 25.776C87.0111 25.216 87.2671 24.448 87.2671 23.472C87.2671 22.512 87.0111 21.76 86.4991 21.216C85.9871 20.672 85.3311 20.4 84.5311 20.4C83.7311 20.4 83.0751 20.672 82.5631 21.216C82.0511 21.76 81.7951 22.512 81.7951 23.472C81.7951 24.448 82.0511 25.216 82.5631 25.776C83.0751 26.32 83.7311 26.592 84.5311 26.592ZM93.9874 12.192H98.5474V30H93.9874V12.192ZM107.055 16.776C109.215 16.776 110.863 17.272 111.999 18.264C113.135 19.24 113.703 20.744 113.703 22.776V30H109.455V28.32C108.799 29.584 107.519 30.216 105.615 30.216C104.607 30.216 103.735 30.04 102.999 29.688C102.263 29.336 101.703 28.864 101.319 28.272C100.951 27.664 100.767 26.976 100.767 26.208C100.767 24.976 101.239 24.024 102.183 23.352C103.127 22.664 104.583 22.32 106.551 22.32H109.143C109.063 20.944 108.143 20.256 106.383 20.256C105.759 20.256 105.127 20.36 104.487 20.568C103.847 20.76 103.303 21.032 102.855 21.384L101.319 18.288C102.039 17.808 102.911 17.44 103.935 17.184C104.975 16.912 106.015 16.776 107.055 16.776ZM106.887 27.336C107.415 27.336 107.879 27.208 108.279 26.952C108.679 26.696 108.967 26.32 109.143 25.824V24.696H107.175C105.847 24.696 105.183 25.136 105.183 26.016C105.183 26.416 105.335 26.736 105.639 26.976C105.943 27.216 106.359 27.336 106.887 27.336ZM137.899 16.992L133.267 30H128.851L126.403 22.92L123.859 30H119.443L114.811 16.992H119.131L121.795 24.864L124.555 16.992H128.443L131.131 24.936L133.891 16.992H137.899ZM139.292 16.992H143.852V30H139.292V16.992ZM141.572 15.552C140.74 15.552 140.068 15.32 139.556 14.856C139.044 14.392 138.788 13.816 138.788 13.128C138.788 12.44 139.044 11.864 139.556 11.4C140.068 10.936 140.74 10.704 141.572 10.704C142.404 10.704 143.076 10.928 143.588 11.376C144.1 11.808 144.356 12.368 144.356 13.056C144.356 13.776 144.1 14.376 143.588 14.856C143.076 15.32 142.404 15.552 141.572 15.552ZM155.288 16.776C156.904 16.776 158.2 17.256 159.176 18.216C160.168 19.176 160.664 20.624 160.664 22.56V30H156.104V23.304C156.104 21.528 155.392 20.64 153.968 20.64C153.184 20.64 152.552 20.896 152.072 21.408C151.608 21.92 151.376 22.688 151.376 23.712V30H146.816V16.992H151.16V18.408C151.672 17.88 152.28 17.48 152.984 17.208C153.688 16.92 154.456 16.776 155.288 16.776ZM177.538 12.192V30H173.194V28.704C172.346 29.712 171.074 30.216 169.378 30.216C168.194 30.216 167.114 29.944 166.138 29.4C165.162 28.84 164.386 28.048 163.81 27.024C163.25 26 162.97 24.816 162.97 23.472C162.97 22.128 163.25 20.952 163.81 19.944C164.386 18.92 165.162 18.136 166.138 17.592C167.114 17.048 168.194 16.776 169.378 16.776C170.93 16.776 172.13 17.224 172.978 18.12V12.192H177.538ZM170.338 26.592C171.122 26.592 171.77 26.32 172.282 25.776C172.794 25.216 173.05 24.448 173.05 23.472C173.05 22.512 172.794 21.76 172.282 21.216C171.786 20.672 171.138 20.4 170.338 20.4C169.538 20.4 168.882 20.672 168.37 21.216C167.858 21.76 167.602 22.512 167.602 23.472C167.602 24.448 167.858 25.216 168.37 25.776C168.882 26.32 169.538 26.592 170.338 26.592Z" fill="white"/>
<path d="M41.0807 32.6376L26.9758 32.5408C26.9758 32.5408 22.9916 32.3991 20.9924 32.4887C17.3937 32.6499 15.4351 37.8331 15.0451 40.0448C14.733 41.8142 15.0402 40.8988 15.5718 40.6951C20.2978 38.8843 21.3292 39.337 28.4494 39.6422C37.0233 40.0098 39.3053 36.3616 39.967 35.5C40.7153 34.5256 41.0807 32.6376 41.0807 32.6376Z" fill="url(#paint0_linear_449_622)"/>
<path d="M47.2224 18.0432L26.1859 18.0434C26.1859 18.0434 22.3837 17.7829 19.2418 18.0433C8.93932 18.897 7.12938 27.7468 6.63093 31.2476C6.23217 34.0482 6.66795 32.5905 7.49388 32.2385C14.8378 29.1087 16.4847 29.7587 27.7074 29.8124C41.2214 29.8771 44.6226 24.0046 45.6189 22.6104C46.7459 21.0335 47.2224 18.0432 47.2224 18.0432Z" fill="url(#paint1_linear_449_622)"/>
<path d="M0.340783 15.0482L21.3772 14.9652C21.3772 14.9652 26.0321 14.9651 30.1528 14.9651C40.4518 14.0709 40.3953 5.18688 40.88 1.68416C41.2677 -1.11802 40.8377 0.341378 40.0131 0.696625C32.6816 3.85539 31.0321 3.21189 19.8094 3.20235C6.2952 3.19086 2.91715 9.07673 1.92627 10.4748C0.805492 12.0561 -0.677815 14.3717 0.340783 15.0482Z" fill="url(#paint2_linear_449_622)"/>
<defs>
<linearGradient id="paint0_linear_449_622" x1="37.8291" y1="-7.47614e-07" x2="12.4873" y2="41.1345" gradientUnits="userSpaceOnUse">
<stop stop-color="#04CD8F"/>
<stop offset="1" stop-color="#904DF8"/>
</linearGradient>
<linearGradient id="paint1_linear_449_622" x1="37.8291" y1="-7.47614e-07" x2="12.4873" y2="41.1345" gradientUnits="userSpaceOnUse">
<stop stop-color="#04CD8F"/>
<stop offset="1" stop-color="#904DF8"/>
</linearGradient>
<linearGradient id="paint2_linear_449_622" x1="37.8291" y1="-7.47614e-07" x2="12.4873" y2="41.1345" gradientUnits="userSpaceOnUse">
<stop stop-color="#04CD8F"/>
<stop offset="1" stop-color="#904DF8"/>
</linearGradient>
</defs>
</svg>
