<?xml version="1.0" encoding="utf-8"?>
<!-- Generator: Adobe Illustrator 25.4.1, SVG Export Plug-In . SVG Version: 6.00 Build 0)  -->
<svg version="1.0" id="katman_1" xmlns="http://www.w3.org/2000/svg" xmlns:xlink="http://www.w3.org/1999/xlink" x="0px" y="0px"
	 viewBox="0 0 800 600" style="enable-background:new 0 0 800 600;" xml:space="preserve">
<path d="M461.7,357.7c1.4,5.5,4.9,7.6,9.5,8.6c7.8,1.6,15.4,0.1,22.8-2c17.8-5.1,34-13.9,50.1-22.8c5.5-2.8,9.7-7.5,11.9-13.2
	c3.7-9,8.2-17.8,12.6-27.2c-2.5-0.1-4.3-0.2-6.1-0.4c-2.9,0-5.8-0.2-8.7-0.6c-3.8-0.7-6.7-2.7-7.6-6.8c-0.8-3.9,1.1-6.8,4.1-8.8
	c2-1.5,4.4-2.4,6.8-2.7c4.7-0.6,9.6-0.5,14.3-0.7c2.6-0.1,4.9,0,7.6,0c3.5-6.5,6.9-13,10.6-19.2c10-16.7,21.6-31.8,37.6-43.1
	c9.6-6.8,20.9-10.8,32.7-11.5c11.1-0.8,19.2,4.6,23,15.3c3.2,9,2.4,18.2-0.2,27.2c-1.8,6.5-10.9,9.6-16.6,6.1
	c-3-1.9-2.9-4.6-2.9-7.6c0.3-3,0.2-6.1-0.2-9.2c-1.1-5.3-4.2-7.8-9.5-6.7c-3.6,0.7-7,2.1-10,4.2c-12.9,8.6-21.9,20.9-29.7,34
	c-1.8,3.1-3.3,6.4-5.5,10.6h9.4c12.7,0.2,25.3,0.3,38,0.6c1.5,0,3,0.2,4.5,0.6c3.5,1,6.4,2.7,6.8,6.8c0.6,4-1.6,7.8-5.3,9.4
	c-3,1.2-6.2,1.8-9.5,2c-16,0.5-31.9,0.7-47.8,0.9H598c-1.7,3.3-3.5,6.4-5,9.6c-16.9,35.4-33.7,70.7-50.7,106.1
	c-1.8,3.6-4,7-6.6,10.1c-3.4,4-8,6.7-13.2,7.6c-8.9,1.7-14.2-4.1-10.9-12.4c3.5-8.7,7.8-17.2,11.7-25.7c4.1-9,8.4-18.1,13.2-28.3
	c-5.1,2.7-9.1,4.9-13,7c-13.9,7.3-28.7,13.2-44.3,15.7c-6.6,1.1-13.4,1.3-20.1,0.6c-11.8-1.4-20.5-8.2-26.2-18.6
	c-1.1-1.8-2-3.6-3.2-5.8c-3.7,2.1-7.1,4.2-10.6,6c-15.2,8.4-31.1,15-48.3,17.8c-6.4,1.2-13,1.4-19.5,0.7
	c-16.2-2.2-25.8-12.5-30.7-27.6c-4.5-13.4-2.4-26.3,3.8-38.5c12-23.4,30.1-40,55.8-47.3c7.8-2.1,16-2.8,24.1-2.1
	c13.3,1.1,21.4,10.7,20.5,24.2c-0.5,8.1-3.9,15.8-9.5,21.7c-10.3,11.2-23.4,18.5-36.9,25c-8.1,3.8-16.6,7.2-25.1,10.8
	c0.6,5.1,4.2,7.3,8.7,8.5c6.4,1.6,12.6,0.7,18.8-0.7c16.4-3.8,31.4-11.1,46.2-19.4c0.5-2.2,0.7-4.5,1.3-6.7
	c7.5-30.9,40.9-64.6,80.9-63.8c23.7,0.5,27.9,19.8,22.6,33.6c-2.8,6.8-7.2,12.8-12.8,17.5c-10.9,9.6-23.3,16.2-36.3,22
	C475.9,351.9,469.1,354.5,461.7,357.7z M460.2,338.3c14.6-7.7,28.6-16.5,41.9-26.3c1.6-1.3,3-3,3.9-4.9c3.2-6,0.7-10.2-6.1-10.2
	c-7.8,0-14.4,3.4-20.1,8.6C470.1,314.4,464.3,325.8,460.2,338.3z M350.8,338.6c0.9-0.2,1.8-0.5,2.7-0.8c12.6-8,25.3-15.9,37.8-24.1
	c2.5-1.8,4.5-4.1,6-6.8c3.2-5.8,0.7-9.9-5.9-10c-7,0-13.7,2.6-18.9,7.3C362,313.1,356.4,325.1,350.8,338.6L350.8,338.6z"/>
<path d="M215.5,311.9c-0.2,0.6-0.3,1.1-0.4,1.7c3.4,16.7,9.6,32,21.1,44.7c4,4.6,9.8,7.1,15.8,7c18.2,0.1,33-7.4,45.1-20.6
	c2-2.3,4.1-4.5,6.4-6.5c2.9-2.2,6.4-2.9,9.7-0.8c3.3,2.1,3.8,5.1,3.4,8.6c-0.6,4.8-2.8,9.3-6.1,12.8c-13.8,14.5-29.8,25.9-49.7,30.8
	c-18.1,4.5-32.9-0.5-45.1-14.1c-8.6-9.9-15.4-21.1-20.3-33.3c-3.4-7.8-6.1-15.8-9.1-23.6c-0.6-1.5-1.2-3.1-2.2-5.9
	c-1.5,3.8-2.6,6.4-3.6,9c-5.5,14.6-10.7,29.2-16.5,43.6c-3.1,8.1-7.8,15.5-13.7,21.9c-4.6,4.9-10,7.8-16.9,7
	c-7.3-1-12.2-5.9-12.9-13.3c-0.6-5.8,0.6-11.6,3.5-16.7c7.3-13.3,14.4-26.7,21.7-40c11.5-20.9,22.9-41.8,34.8-62.4
	c5.6-9,11.6-17.6,18.1-25.9c2.4-2.9,5.3-5.5,8.4-7.6c2.8-2.3,6.8-2.6,9.8-0.6c3,1.6,4.6,5,3.9,8.4c-0.4,4-1.3,7.9-2.7,11.7
	c-4.9,12.1-10.3,24-15.4,35.9c-0.5,1-0.9,2.1-1.7,3.6c4.9,0.8,10,0.6,14.8-0.6c26.1-4.8,49.7-29.1,53.7-55.3
	c2.7-17-4.9-30.6-20.8-37.4c-7.8-3.2-16.2-4.7-24.6-4.5c-10.4,0-20.5,0.6-30.6,3.6c-15.6,4.9-27,14.6-35.3,28.7
	c-3.7,6.3-7.4,12.5-11.5,18.5c-2.7,4.5-7.1,7.7-12.2,8.9c-9.2,2.1-19.9-2.7-19-15.5c0.6-8.3,4.1-15.5,8.9-22.1
	c10.8-15,25.1-25.4,41.5-33.1c20.4-9.7,42.9-14.1,65.4-12.8c16.6,0.9,32.2,5,46.3,14c27.7,17.8,33.6,51.9,19.7,77.5
	c-9.7,18.1-24.8,30.5-42.4,40.2C242.6,304,229.3,309,215.5,311.9z"/>
<path d="M573.5,371.5c-0.5-10.5,8.2-20.9,21.6-22c7.1-0.6,14.8,6.3,15.7,13.5c1.4,12.3-5.1,23.8-19,26.8c-7.5,1.5-16.9-5.9-18-13.5
	C573.5,374.6,573.6,373.1,573.5,371.5z"/>
</svg>
