<svg xmlns="http://www.w3.org/2000/svg" viewBox="0 0 985.76 327.19"><defs><style>.cls-1{fill:#f7931e;}.cls-2{fill:#ae2c61;}.cls-3{fill:#69e0c9;}</style></defs><g id="Layer_1" data-name="Layer 1"><path class="cls-1" d="M35.85,89.44v0h65.4A73.73,73.73,0,0,0,175,15.74v0H109.59A73.73,73.73,0,0,0,35.85,89.44Z"/><path class="cls-2" d="M35.85,73.75h0s0,0,0,0h65.36A73.74,73.74,0,0,0,175,0H109.6A73.75,73.75,0,0,0,35.85,73.75Z"/><path class="cls-3" d="M93.22,102.51h0A44.46,44.46,0,0,1,137.68,147v5.74H93.22V317.63h0a57.38,57.38,0,0,1-57.37-57.37V152.7h0A35.85,35.85,0,0,1,0,116.85V102.51H93.22Z"/><path class="cls-3" d="M534.47,317.63h-45.9a11.48,11.48,0,0,1-11.47-11.47h0c-17.69,13.86-39.2,20.55-61.19,20.55-56.41,0-115.69-43-115.69-116.64S359.5,93.42,415.91,93.42c22,0,43.5,6.7,61.19,20.56V102.51h0a57.37,57.37,0,0,1,57.37,57.37ZM417.34,143.14c-33,0-59.75,30.12-59.75,66.93S384.36,277,417.34,277s59.76-30.12,59.76-66.93S450.33,143.14,417.34,143.14Z"/><path class="cls-3" d="M727.12,112.19a29.57,29.57,0,0,1-29.86,29.52H697c-29.64,0-50.19,22-50.19,47.33v128.6h0a57.36,57.36,0,0,1-57.36-57.37V102.51h46.37a11,11,0,0,1,11,11h0C661.63,97.25,679.8,93,698.92,93a191.69,191.69,0,0,1,28.2,2.39Z"/><path class="cls-3" d="M961.36,234.45H813.18C821.79,259.31,843.3,277,868.63,277a54.51,54.51,0,0,0,28.62-8.11c21.79-13.35,49-14.12,71-1.07l1.76,1.05a116.47,116.47,0,0,1-97.33,58.25c-64.93,2.17-119.68-49.5-121.11-114.44C750.1,147,803.23,93,868.63,93c64.54,0,117.13,52.58,117.13,117.12v.25A24.33,24.33,0,0,1,961.36,234.45Zm-37.76-50.2h0c-9.09-23.89-30.12-41.1-55-41.1s-45.88,16.73-55,41.1H923.6Z"/><path class="cls-3" d="M203.76,81.71a33.54,33.54,0,0,0-18.27,30.07V265.43c0,28.83,25.68,52.2,57.36,52.2h0V39.8a1.13,1.13,0,0,0-2.21-.35A74,74,0,0,1,203.76,81.71Z"/></g></svg>