<svg width="20" height="23" viewBox="0 0 20 23" fill="none" xmlns="http://www.w3.org/2000/svg">
<path d="M10 11.5C13.224 11.5 15.8333 8.9279 15.8333 5.75C15.8333 2.5721 13.224 0 10 0C6.77604 0 4.16667 2.5721 4.16667 5.75C4.16667 8.9279 6.77604 11.5 10 11.5ZM14 13.1429H13.5677C12.4844 13.6562 11.2812 13.9643 10 13.9643C8.71875 13.9643 7.52083 13.6562 6.43229 13.1429H6C2.6875 13.1429 0 15.792 0 19.0571V20.5357C0 21.8962 1.11979 23 2.5 23H17.5C18.8802 23 20 21.8962 20 20.5357V19.0571C20 15.792 17.3125 13.1429 14 13.1429Z" fill="#9FA2B4"/>
</svg>
