<?xml version="1.0" standalone="no"?>
<!DOCTYPE svg PUBLIC "-//W3C//DTD SVG 20010904//EN"
 "http://www.w3.org/TR/2001/REC-SVG-20010904/DTD/svg10.dtd">
<svg version="1.0" xmlns="http://www.w3.org/2000/svg"
 width="223.000000pt" height="223.000000pt" viewBox="0 0 223.000000 223.000000"
 preserveAspectRatio="xMidYMid meet">
<metadata>
Created by potrace 1.14, written by Peter Selinger 2001-2017
</metadata>
<g transform="translate(0.000000,223.000000) scale(0.100000,-0.100000)"
fill="#000000" stroke="none">
<path d="M1065 2072 c0 -164 -13 -226 -71 -342 -41 -83 -96 -154 -237 -304
-183 -194 -245 -276 -307 -409 -75 -161 -104 -325 -80 -467 25 -155 131 -321
279 -434 53 -41 160 -106 174 -106 3 0 -16 44 -43 98 -118 237 -136 439 -60
673 54 165 167 353 337 564 201 248 230 323 197 499 -15 79 -91 241 -152 323
l-37 51 0 -146z"/>
<path d="M1464 1738 c1 -238 -48 -342 -282 -595 -173 -187 -252 -319 -297
-499 -43 -166 -31 -319 31 -434 44 -81 147 -171 221 -194 l21 -7 -20 53 c-91
236 -68 448 73 655 28 42 152 199 168 213 17 15 114 134 154 188 63 86 88 157
94 268 5 79 2 104 -21 185 -25 87 -84 213 -125 267 -17 23 -17 20 -17 -100z"/>
<path d="M1767 1274 c-10 -162 -72 -289 -234 -482 -142 -169 -172 -209 -208
-275 -73 -135 -87 -274 -37 -372 31 -62 114 -147 128 -132 3 2 0 17 -6 33 -40
102 16 251 146 389 196 210 265 302 294 392 38 119 9 368 -59 500 l-18 36 -6
-89z"/>
</g>
</svg>
